<svg xmlns="http://www.w3.org/2000/svg" viewBox="0 0 1200 700" role="img" aria-label="AI Builders Workshop event poster">
  <defs>
    <linearGradient id="bg" x1="0" x2="1" y1="0" y2="1">
      <stop stop-color="#fbfaf3"/>
      <stop offset="0.5" stop-color="#eef5d9"/>
      <stop offset="1" stop-color="#52670f"/>
    </linearGradient>
    <radialGradient id="light" cx="76%" cy="24%" r="52%">
      <stop stop-color="#d8f066" stop-opacity="0.78"/>
      <stop offset="0.55" stop-color="#d8f066" stop-opacity="0.12"/>
      <stop offset="1" stop-color="#d8f066" stop-opacity="0"/>
    </radialGradient>
    <filter id="shadow" x="-20%" y="-20%" width="140%" height="140%">
      <feDropShadow dx="0" dy="20" stdDeviation="18" flood-color="#52670f" flood-opacity="0.2"/>
    </filter>
  </defs>
  <rect width="1200" height="700" fill="url(#bg)"/>
  <rect width="1200" height="700" fill="url(#light)"/>
  <g opacity="0.22" stroke="#52670f" stroke-width="2">
    <path d="M80 100H1120M80 200H1120M80 300H1120M80 400H1120M80 500H1120"/>
    <path d="M180 60V620M340 60V620M500 60V620M660 60V620M820 60V620M980 60V620"/>
  </g>
  <g filter="url(#shadow)">
    <rect x="84" y="86" width="334" height="82" rx="41" fill="#ffffff" opacity="0.9"/>
    <text x="126" y="139" font-family="Inter, Arial, sans-serif" font-size="25" font-weight="950" fill="#52670f" letter-spacing="5">PROMPT TO LAB</text>
    <text x="86" y="318" font-family="Inter, Arial, sans-serif" font-size="88" font-weight="950" fill="#10120b">AI BUILDERS</text>
    <text x="86" y="414" font-family="Inter, Arial, sans-serif" font-size="88" font-weight="950" fill="#52670f">WORKSHOP</text>
    <text x="92" y="474" font-family="Inter, Arial, sans-serif" font-size="28" font-weight="700" fill="#5e6256">Build, review, verify, and publish proof.</text>
  </g>
  <g transform="translate(770 126)" filter="url(#shadow)">
    <rect x="0" y="0" width="300" height="430" rx="44" fill="#fffdf8" opacity="0.94"/>
    <circle cx="84" cy="86" r="34" fill="#eef5d9"/>
    <path d="M84 56 L112 72 L112 104 L84 120 L56 104 L56 72 Z" fill="none" stroke="#52670f" stroke-width="10"/>
    <rect x="44" y="162" width="212" height="24" rx="12" fill="#52670f" opacity="0.2"/>
    <rect x="44" y="211" width="170" height="24" rx="12" fill="#52670f" opacity="0.16"/>
    <rect x="44" y="260" width="226" height="24" rx="12" fill="#52670f" opacity="0.18"/>
    <rect x="44" y="328" width="212" height="56" rx="20" fill="#52670f"/>
    <text x="76" y="364" font-family="Inter, Arial, sans-serif" font-size="18" font-weight="900" fill="#fffdf2">QR READY</text>
  </g>
  <text x="90" y="620" font-family="Inter, Arial, sans-serif" font-size="24" font-weight="900" fill="#52670f" letter-spacing="5">T-HUB · JULY 12 · 120 BUILDERS</text>
</svg>
