<svg xmlns="http://www.w3.org/2000/svg" viewBox="0 0 1200 700" role="img" aria-label="Startup Pitch Night event poster">
  <defs>
    <linearGradient id="bg" x1="0" x2="1" y1="0" y2="1">
      <stop stop-color="#fffaf0"/>
      <stop offset="0.45" stop-color="#f4e1b6"/>
      <stop offset="1" stop-color="#11150b"/>
    </linearGradient>
    <radialGradient id="glow" cx="68%" cy="36%" r="54%">
      <stop stop-color="#f7c56b" stop-opacity="0.76"/>
      <stop offset="0.5" stop-color="#52670f" stop-opacity="0.16"/>
      <stop offset="1" stop-color="#11150b" stop-opacity="0"/>
    </radialGradient>
    <filter id="shadow" x="-20%" y="-20%" width="140%" height="140%">
      <feDropShadow dx="0" dy="22" stdDeviation="20" flood-color="#11150b" flood-opacity="0.28"/>
    </filter>
  </defs>
  <rect width="1200" height="700" fill="url(#bg)"/>
  <rect width="1200" height="700" fill="url(#glow)"/>
  <path d="M0 510 C210 460 320 560 510 500 C745 425 915 460 1200 320 L1200 700 L0 700 Z" fill="#11150b" opacity="0.68"/>
  <g opacity="0.16" stroke="#52670f" stroke-width="2">
    <circle cx="940" cy="150" r="92"/>
    <circle cx="940" cy="150" r="152"/>
    <circle cx="940" cy="150" r="214"/>
  </g>
  <g filter="url(#shadow)">
    <rect x="82" y="82" width="360" height="88" rx="44" fill="#fffdf2" opacity="0.92"/>
    <text x="124" y="138" font-family="Inter, Arial, sans-serif" font-size="25" font-weight="950" fill="#52670f" letter-spacing="5">FOUNDER ROOM</text>
    <text x="86" y="316" font-family="Inter, Arial, sans-serif" font-size="86" font-weight="950" fill="#10120b">STARTUP</text>
    <text x="86" y="410" font-family="Inter, Arial, sans-serif" font-size="86" font-weight="950" fill="#52670f">PITCH NIGHT</text>
    <text x="92" y="470" font-family="Inter, Arial, sans-serif" font-size="28" font-weight="700" fill="#4c4f43">Applications, sponsors, volunteers, proof.</text>
  </g>
  <g transform="translate(750 130)" filter="url(#shadow)">
    <rect x="0" y="0" width="318" height="380" rx="50" fill="#fffdf2" opacity="0.95"/>
    <path d="M70 260 C96 160 138 98 230 52 C204 146 162 210 70 260Z" fill="#52670f"/>
    <circle cx="206" cy="78" r="18" fill="#d8f066"/>
    <rect x="52" y="292" width="214" height="22" rx="11" fill="#52670f" opacity="0.22"/>
    <rect x="52" y="334" width="158" height="22" rx="11" fill="#52670f" opacity="0.16"/>
  </g>
  <text x="90" y="625" font-family="Inter, Arial, sans-serif" font-size="24" font-weight="900" fill="#fffdf2" letter-spacing="5">HYDERABAD · JULY 26 · 150 GUESTS</text>
</svg>
